<svg width="85" height="23" xmlns="http://www.w3.org/2000/svg"><g fill="none" fill-rule="evenodd"><g fill-rule="nonzero" fill="#4E595E"><path d="M54.518 22.208h-2.557v-7.42h-2.766v-1.76h8.173v1.719H54.56c-.042 2.515-.042 4.988-.042 7.461zm14.252 0h-2.348c0-.21-.042-.377-.042-.629-.083.084-.167.126-.251.168a2.664 2.664 0 0 1-3.06.335c-.587-.335-1.006-.838-1.048-1.467-.042-1.593 0-3.144 0-4.778h2.347c0 .167.042.293.042.46v3.06c0 .294.042.587.084.839.126.461.377.67.838.713.503 0 .88-.252 1.006-.671.042-.21.084-.461.084-.67V15.92h2.39c-.042 2.053-.042 4.15-.042 6.287zm-32.527-6.916h-1.174c-.084 0-.168-.126-.21-.21-.251-.67-.754-1.006-1.425-1.09-1.844-.293-3.185.63-3.563 2.432-.21 1.006-.125 2.012.168 3.017.293.965.964 1.551 1.97 1.761.922.21 1.844.168 2.767-.084.125-.042.293-.168.293-.251.042-.797 0-1.593 0-2.431h-2.054v-1.09h3.311v4.191c0 .168.042.336-.21.42-1.424.419-2.891.628-4.358.377-1.803-.336-2.935-1.635-3.228-3.647-.21-1.3 0-2.515.587-3.647.67-1.3 1.76-2.012 3.185-2.137.965-.084 1.929 0 2.809.503.67.377 1.09.964 1.132 1.886zm39.862 2.473h-2.18c-.251-.629-.46-.797-.964-.713-.293.042-.46.168-.503.461-.042.294.126.42.336.461l2.012.503c1.09.336 1.55.964 1.383 2.138-.084.713-.503 1.216-1.174 1.467-1.215.461-2.473.461-3.73.042-.839-.293-1.258-1.006-1.174-1.97h2.18c.251.755.628 1.006 1.173.796.168-.083.377-.293.42-.46.041-.168-.126-.42-.294-.504-.377-.167-.796-.293-1.174-.419-.46-.167-.964-.251-1.383-.503-1.174-.628-1.257-2.221-.126-2.892.461-.293 1.048-.461 1.593-.503.713-.042 1.467 0 2.138.168 1.006.251 1.509 1.048 1.467 1.928zm5.826 3.144v1.215c0 .084-.167.21-.21.21-.796 0-1.55.042-2.347-.042-.712-.084-1.131-.545-1.173-1.258-.042-.754-.042-1.467-.042-2.221v-1.425h-1.216v-1.51h1.174c0-.125.042-.209.042-.293 0-.67 0-.67.629-.922a48.77 48.77 0 0 0 1.76-.67v1.886h1.383v1.509h-1.383v2.892c0 .503.168.67.713.67.21-.041.419-.041.67-.041zm-43.048-1.635c-.125 1.215.378 2.096 1.3 2.263.922.126 1.634-.042 1.886-1.257h1.216c-.126.922-.587 1.55-1.426 1.886a3.354 3.354 0 0 1-2.389.126c-.754-.21-1.257-.67-1.55-1.383-.504-1.216-.504-2.473.041-3.69.545-1.215 1.719-1.76 3.186-1.508 1.215.168 2.012 1.048 2.138 2.347.041.378.041.755.083 1.216h-4.485zm0-.88h3.186c.084-1.09-.503-1.845-1.551-1.887-.964-.042-1.635.713-1.635 1.887z"/><path d="M56.32 15.837h2.348c.042.335.042.67.084 1.131.377-1.09 1.173-1.34 2.137-1.34v2.011h-.335c-1.216 0-1.76.545-1.802 1.802v2.726H56.32v-6.33zm-8.928 6.581c-2.43 0-3.353-1.845-3.143-3.899.251-2.263 2.137-3.437 4.317-2.724.964.335 1.593 1.006 1.844 1.97.252.838.21 1.676 0 2.473-.377 1.425-1.467 2.18-3.018 2.18zm2.012-3.396c-.084-.46-.167-.964-.293-1.425-.252-.754-.88-1.09-1.677-1.09-.796 0-1.383.378-1.676 1.132a4.046 4.046 0 0 0 0 2.808c.293.755.88 1.09 1.676 1.09.797 0 1.425-.377 1.677-1.131.126-.42.168-.88.293-1.384z"/></g><path d="M32.153 3.455h.81a2.265 2.265 0 0 0-.202-.913 1.78 1.78 0 0 0-.504-.635 2.079 2.079 0 0 0-.743-.369 3.434 3.434 0 0 0-.918-.117c-.294 0-.58.037-.86.112a2.363 2.363 0 0 0-.746.343 1.731 1.731 0 0 0-.527.585 1.703 1.703 0 0 0-.198.841c0 .294.059.538.176.734.117.195.273.353.468.477.195.123.415.221.661.297.246.075.497.14.752.198l.751.166c.246.054.467.124.662.212.195.087.35.199.468.337.117.138.175.318.175.54 0 .234-.048.426-.144.576-.096.15-.222.268-.378.356a1.71 1.71 0 0 1-.526.184 3.192 3.192 0 0 1-.58.054c-.24 0-.475-.03-.703-.09a1.747 1.747 0 0 1-.598-.279 1.432 1.432 0 0 1-.414-.481 1.451 1.451 0 0 1-.158-.698h-.81c0 .39.07.727.212 1.013.14.285.333.518.576.702.243.183.525.319.846.409a3.907 3.907 0 0 0 1.908.031c.297-.069.565-.18.805-.333.24-.153.437-.35.59-.593.153-.244.23-.536.23-.878 0-.318-.06-.582-.176-.792a1.563 1.563 0 0 0-.468-.522 2.479 2.479 0 0 0-.662-.328 8.973 8.973 0 0 0-.751-.212 28.87 28.87 0 0 0-.752-.166 3.935 3.935 0 0 1-.661-.194 1.301 1.301 0 0 1-.468-.301.67.67 0 0 1-.176-.482c0-.21.04-.385.122-.526a.945.945 0 0 1 .324-.338 1.41 1.41 0 0 1 .463-.18c.174-.036.351-.054.531-.054.444 0 .809.103 1.094.31.285.208.451.542.5 1.004zm2.115-1.881V8h4.464v-.72h-3.609V5.057h3.34v-.72h-3.34V2.294h3.582v-.72h-4.437zm10.017 1.935h.855a2.391 2.391 0 0 0-.306-.904 2.225 2.225 0 0 0-.585-.653 2.564 2.564 0 0 0-.8-.396 3.31 3.31 0 0 0-.955-.135 3.08 3.08 0 0 0-1.31.265 2.706 2.706 0 0 0-.953.725 3.177 3.177 0 0 0-.58 1.075 4.265 4.265 0 0 0-.199 1.319c0 .468.062.906.185 1.314.123.408.307.762.553 1.062.246.3.555.535.927.707.372.17.807.256 1.305.256.822 0 1.47-.225 1.944-.675.474-.45.753-1.08.837-1.89h-.855c-.018.264-.072.51-.162.738a1.701 1.701 0 0 1-.94.976c-.22.094-.47.14-.752.14-.384 0-.714-.072-.99-.216a1.933 1.933 0 0 1-.68-.58 2.486 2.486 0 0 1-.39-.855 4.164 4.164 0 0 1-.127-1.04c0-.336.042-.66.126-.972.084-.312.215-.59.392-.833.177-.243.402-.436.675-.58.273-.144.601-.216.985-.216.45 0 .839.114 1.166.342.327.228.538.57.634 1.026zm7.11 2.169V1.574h-.855v4.104c0 .576-.142 1.012-.427 1.31-.285.297-.7.445-1.247.445-.576 0-1.017-.148-1.323-.446-.306-.297-.459-.733-.459-1.309V1.574h-.855v4.104c0 .858.233 1.483.698 1.877.465.393 1.111.589 1.94.589.81 0 1.433-.205 1.871-.617.438-.41.657-1.027.657-1.849zm1.368-4.104h3.024c.612 0 1.09.15 1.436.45.345.3.517.711.517 1.233 0 .39-.088.732-.265 1.026-.177.294-.46.495-.85.603v.018c.185.036.337.096.454.18.117.084.21.184.279.301.069.118.12.248.153.392.033.144.058.294.076.45.012.156.021.315.027.477.006.162.021.321.045.477.024.156.059.304.104.445.045.142.112.266.202.374h-.954a.537.537 0 0 1-.121-.27 2.773 2.773 0 0 1-.04-.383 82.897 82.897 0 0 1-.019-.454 3.137 3.137 0 0 0-.054-.477 4.675 4.675 0 0 0-.09-.446 1.045 1.045 0 0 0-.17-.369.844.844 0 0 0-.307-.252 1.135 1.135 0 0 0-.504-.094h-2.088V8h-.855V1.574zM55.4 4.535c.198 0 .387-.015.567-.045.18-.03.338-.088.473-.176a.961.961 0 0 0 .324-.35c.08-.148.121-.338.121-.572 0-.324-.09-.588-.27-.792-.18-.204-.47-.306-.873-.306h-2.124v2.241H55.4zm3.528-2.961V8h4.464v-.72h-3.609V5.057h3.34v-.72h-3.34V2.294h3.582v-.72h-4.437zm6.354 5.706h1.422c.096 0 .216-.007.36-.022a2.098 2.098 0 0 0 .94-.356c.16-.108.302-.255.428-.441s.23-.418.31-.698c.082-.279.122-.616.122-1.012 0-.384-.037-.727-.112-1.03a1.976 1.976 0 0 0-.37-.775 1.62 1.62 0 0 0-.66-.486c-.27-.11-.604-.166-1-.166h-1.44V7.28zm-.855-5.706h2.205c.99 0 1.752.252 2.286.756s.801 1.272.801 2.304c0 .54-.06 1.018-.18 1.435-.12.418-.306.768-.558 1.053a2.418 2.418 0 0 1-.963.653c-.39.15-.852.225-1.386.225h-2.205V1.574zm9.396 2.817h2.106a2.1 2.1 0 0 0 .64-.086c.18-.057.33-.134.45-.233a.964.964 0 0 0 .36-.77c0-.804-.484-1.206-1.45-1.206h-2.106v2.295zm-.612-2.817h2.718c.27 0 .53.025.779.076.249.052.468.138.657.261.189.124.34.285.454.486.114.202.171.452.171.752a1.515 1.515 0 0 1-.66 1.251c-.135.09-.287.153-.455.189v.018c.414.054.744.223.99.509.246.285.37.637.37 1.057 0 .102-.01.217-.028.347a1.699 1.699 0 0 1-.342.796 1.385 1.385 0 0 1-.41.347c-.17.099-.38.18-.63.243A3.693 3.693 0 0 1 75.93 8h-2.718V1.574zm.612 5.904h2.106c.228 0 .444-.02.648-.058.204-.04.384-.11.54-.212.156-.102.28-.238.37-.41.09-.17.134-.385.134-.643 0-.414-.145-.724-.436-.932-.291-.207-.71-.31-1.256-.31h-2.106v2.565zm7.182-2.124V8h.612V5.354l2.538-3.78h-.729L81.32 4.832l-2.115-3.258h-.72l2.52 3.78z" fill="#444F54"/><g fill-rule="nonzero"><path d="M10.427 18.458c2.865-.326 3.972-.912 6.185-3.06-.13 1.041-.195 2.018-.325 3.06.781-.065 1.497-.065 2.214-.195.13 0 .26-.26.325-.391.065-.195 0-.456 0-.716V10.71h-1.562c-1.954.13-3.842.26-5.795.39-.521 0-.716.196-.651.717.065.52 0 1.041 0 1.692 1.172-.195 2.279-.325 3.385-.455-.325 1.823-2.604 3.45-4.297 3.125-.651-.13-1.042-.52-1.172-1.107-.846-4.232 2.41-8.139 6.576-8.269 3.256-.13 6.642 2.149 7.162 6.055.521 4.167-2.409 7.293-5.794 7.814-2.41.26-4.428-.521-6.251-2.214z" fill="#F17132"/><path d="M5.088 10.97c0-4.492 3.776-8.139 8.4-8.139.715 0 1.432.065 2.083.26V.032H.4v15.757h6.316c-.977-1.367-1.628-3.06-1.628-4.818z" fill="#196FB1"/></g></g></svg>