<svg width="89" height="24" xmlns="http://www.w3.org/2000/svg"><g fill="none" fill-rule="evenodd"><path d="M25.04 6.65h-.68c-.02.44.038.817.175 1.13.137.313.332.57.585.77.253.2.56.348.92.445a4.5 4.5 0 0 0 1.17.145c.42 0 .78-.038 1.08-.115.3-.077.552-.177.755-.3a1.7 1.7 0 0 0 .48-.415c.117-.153.207-.305.27-.455.063-.15.103-.292.12-.425s.025-.24.025-.32a1.76 1.76 0 0 0-.145-.75 1.52 1.52 0 0 0-.4-.525 2.366 2.366 0 0 0-.59-.36 5.003 5.003 0 0 0-.715-.245l-1.74-.43a2.623 2.623 0 0 1-.415-.13 1.242 1.242 0 0 1-.345-.21.92.92 0 0 1-.235-.315 1.033 1.033 0 0 1-.085-.435c0-.267.05-.49.15-.67.1-.18.232-.325.395-.435.163-.11.353-.19.57-.24.217-.05.442-.075.675-.075.253 0 .495.035.725.105.23.07.433.173.61.31s.32.307.43.51c.11.203.172.442.185.715h.68a2.07 2.07 0 0 0-.215-.965 2.082 2.082 0 0 0-.575-.695 2.486 2.486 0 0 0-.84-.42 3.59 3.59 0 0 0-1.01-.14c-.5 0-.91.072-1.23.215-.32.143-.572.318-.755.525a1.695 1.695 0 0 0-.375.66c-.067.233-.1.437-.1.61 0 .28.045.517.135.71.09.193.208.357.355.49s.318.24.515.32c.197.08.398.147.605.2l1.59.39c.167.04.337.092.51.155s.332.145.475.245c.143.1.26.223.35.37.09.147.135.32.135.52 0 .26-.063.482-.19.665a1.57 1.57 0 0 1-.475.45c-.19.117-.395.202-.615.255-.22.053-.423.08-.61.08a4.28 4.28 0 0 1-.92-.095 2.063 2.063 0 0 1-.745-.315 1.509 1.509 0 0 1-.495-.59c-.12-.247-.177-.553-.17-.92zm6.03-4.79V9h.68V1.86h-.68zm1.41 0v.58h2.48V9h.68V2.44h2.49v-.58h-5.65zm6.32 0V9h4.98v-.58h-4.3V5.6h3.98v-.58h-3.98V2.44h4.25v-.58H38.8zm12.9 2.09h.9a2.517 2.517 0 0 0-.225-1.015 1.978 1.978 0 0 0-.56-.705 2.31 2.31 0 0 0-.825-.41 3.815 3.815 0 0 0-1.02-.13c-.327 0-.645.042-.955.125-.31.083-.587.21-.83.38s-.438.387-.585.65c-.147.263-.22.575-.22.935 0 .327.065.598.195.815.13.217.303.393.52.53.217.137.462.247.735.33.273.083.552.157.835.22l.835.185c.273.06.518.138.735.235.217.097.39.222.52.375s.195.353.195.6c0 .26-.053.473-.16.64a1.164 1.164 0 0 1-.42.395 1.9 1.9 0 0 1-.585.205c-.217.04-.432.06-.645.06-.267 0-.527-.033-.78-.1a1.94 1.94 0 0 1-.665-.31 1.591 1.591 0 0 1-.46-.535 1.613 1.613 0 0 1-.175-.775h-.9c0 .433.078.808.235 1.125.157.317.37.577.64.78.27.203.583.355.94.455a4.34 4.34 0 0 0 2.12.035c.33-.077.628-.2.895-.37.267-.17.485-.39.655-.66.17-.27.255-.595.255-.975 0-.353-.065-.647-.195-.88a1.737 1.737 0 0 0-.52-.58 2.754 2.754 0 0 0-.735-.365 9.97 9.97 0 0 0-.835-.235 32.078 32.078 0 0 0-.835-.185 4.372 4.372 0 0 1-.735-.215 1.446 1.446 0 0 1-.52-.335.744.744 0 0 1-.195-.535c0-.233.045-.428.135-.585.09-.157.21-.282.36-.375.15-.093.322-.16.515-.2.193-.04.39-.06.59-.06.493 0 .898.115 1.215.345.317.23.502.602.555 1.115zm2.35-2.09V9h4.96v-.8H55V5.73h3.71v-.8H55V2.66h3.98v-.8h-4.93zM65.5 8.11l.25.89h.6V5.24h-3.13v.8h2.28c.013.327-.03.632-.13.915-.1.283-.248.53-.445.74-.197.21-.438.375-.725.495s-.617.18-.99.18c-.4 0-.752-.078-1.055-.235a2.304 2.304 0 0 1-.765-.63 2.807 2.807 0 0 1-.47-.91 3.602 3.602 0 0 1-.16-1.075c0-.38.047-.752.14-1.115.093-.363.238-.687.435-.97.197-.283.45-.512.76-.685.31-.173.682-.26 1.115-.26.267 0 .518.032.755.095s.448.158.635.285c.187.127.343.288.47.485.127.197.213.432.26.705h.95a2.887 2.887 0 0 0-.375-1.075 2.523 2.523 0 0 0-.68-.735 2.77 2.77 0 0 0-.92-.425 4.304 4.304 0 0 0-1.095-.135c-.567 0-1.062.105-1.485.315a3.11 3.11 0 0 0-1.06.845 3.655 3.655 0 0 0-.64 1.235c-.143.47-.215.965-.215 1.485 0 .467.077.917.23 1.35.153.433.377.817.67 1.15.293.333.65.598 1.07.795.42.197.897.295 1.43.295.42 0 .837-.082 1.25-.245.413-.163.76-.432 1.04-.805zm7.95-1.69V1.86h-.95v4.56c0 .64-.158 1.125-.475 1.455-.317.33-.778.495-1.385.495-.64 0-1.13-.165-1.47-.495-.34-.33-.51-.815-.51-1.455V1.86h-.95v4.56c0 .953.258 1.648.775 2.085.517.437 1.235.655 2.155.655.9 0 1.593-.228 2.08-.685.487-.457.73-1.142.73-2.055zm1.52-4.56h3.36c.68 0 1.212.167 1.595.5.383.333.575.79.575 1.37 0 .433-.098.813-.295 1.14-.197.327-.512.55-.945.67v.02c.207.04.375.107.505.2.13.093.233.205.31.335.077.13.133.275.17.435.037.16.065.327.085.5.013.173.023.35.03.53.007.18.023.357.05.53.027.173.065.338.115.495.05.157.125.295.225.415h-1.06a.596.596 0 0 1-.135-.3 3.082 3.082 0 0 1-.045-.425 92.097 92.097 0 0 1-.02-.505 3.485 3.485 0 0 0-.06-.53 5.194 5.194 0 0 0-.1-.495 1.16 1.16 0 0 0-.19-.41.938.938 0 0 0-.34-.28c-.14-.07-.327-.105-.56-.105h-2.32V9h-.95V1.86zm2.93 3.29c.22 0 .43-.017.63-.05s.375-.098.525-.195c.15-.097.27-.227.36-.39.09-.163.135-.375.135-.635 0-.36-.1-.653-.3-.88-.2-.227-.523-.34-.97-.34h-2.36v2.49h1.98zm4.47.28c0 .36.047.715.14 1.065.093.35.24.665.44.945.2.28.457.505.77.675.313.17.687.255 1.12.255.433 0 .807-.085 1.12-.255.313-.17.57-.395.77-.675.2-.28.347-.595.44-.945a4.116 4.116 0 0 0 0-2.13 2.892 2.892 0 0 0-.44-.945 2.25 2.25 0 0 0-.77-.675c-.313-.17-.687-.255-1.12-.255-.433 0-.807.085-1.12.255a2.25 2.25 0 0 0-.77.675c-.2.28-.347.595-.44.945a4.13 4.13 0 0 0-.14 1.065zm-.95 0c0-.487.072-.955.215-1.405a3.54 3.54 0 0 1 .645-1.195A3.148 3.148 0 0 1 83.35 2c.427-.207.923-.31 1.49-.31s1.063.103 1.49.31c.427.207.783.483 1.07.83.287.347.502.745.645 1.195.143.45.215.918.215 1.405s-.072.955-.215 1.405A3.54 3.54 0 0 1 87.4 8.03a3.095 3.095 0 0 1-1.07.825c-.427.203-.923.305-1.49.305s-1.063-.102-1.49-.305a3.095 3.095 0 0 1-1.07-.825 3.54 3.54 0 0 1-.645-1.195 4.601 4.601 0 0 1-.215-1.405zm-42.04 9.158h.504v2.368h.016c.053-.15.13-.28.228-.392a1.45 1.45 0 0 1 .756-.456c.15-.037.299-.056.448-.056.315 0 .588.059.82.176.232.117.425.276.58.476.155.2.27.432.344.696.075.264.112.543.112.836 0 .293-.037.572-.112.836-.075.264-.19.496-.344.696-.155.2-.348.357-.58.472a1.83 1.83 0 0 1-.82.172c-.336 0-.636-.077-.9-.232a1.33 1.33 0 0 1-.572-.664h-.016v.784h-.464v-5.712zm3.304 3.648a2.71 2.71 0 0 0-.076-.636c-.05-.21-.13-.399-.24-.564a1.34 1.34 0 0 0-.42-.404 1.162 1.162 0 0 0-.616-.156c-.267 0-.492.052-.676.156a1.336 1.336 0 0 0-.448.404 1.66 1.66 0 0 0-.248.564 2.71 2.71 0 0 0 0 1.272c.05.21.133.399.248.564.115.165.264.3.448.404.184.104.41.156.676.156.24 0 .445-.052.616-.156.17-.104.31-.239.42-.404.11-.165.19-.353.24-.564.05-.21.076-.423.076-.636zm.824-2.064 1.648 4.112-.176.464-.12.264a.757.757 0 0 1-.136.204.585.585 0 0 1-.188.132.683.683 0 0 1-.276.048c-.059 0-.116-.004-.172-.012a4.593 4.593 0 0 1-.172-.028v.424a.487.487 0 0 0 .148.028l.236.012c.16 0 .292-.015.396-.044a.703.703 0 0 0 .272-.144.994.994 0 0 0 .212-.272c.064-.115.133-.26.208-.436l1.792-4.752h-.504l-1.272 3.52-1.36-3.52h-.536z" fill="#444F54"/><g fill-rule="nonzero"><path d="M67 18c0 1.727-1.347 3-3 3s-3-1.273-3-3c0-1.74 1.347-3 3-3s3 1.26 3 3zm-1.313 0c0-1.08-.78-1.818-1.687-1.818-.906 0-1.687.739-1.687 1.818 0 1.069.78 1.818 1.687 1.818.906 0 1.687-.75 1.687-1.818z" fill="#EA4335"/><path d="M73 18c0 1.727-1.347 3-3 3s-3-1.273-3-3c0-1.738 1.347-3 3-3s3 1.26 3 3zm-1.313 0c0-1.08-.78-1.818-1.687-1.818-.906 0-1.687.739-1.687 1.818 0 1.069.78 1.818 1.687 1.818.906 0 1.687-.75 1.687-1.818z" fill="#FBBC05"/><path d="M80 15.188v5.58C80 23.062 78.637 24 77.025 24c-1.517 0-2.43-1.007-2.774-1.831l1.197-.495c.213.506.735 1.103 1.576 1.103 1.032 0 1.67-.632 1.67-1.822v-.447h-.047c-.308.377-.9.706-1.648.706-1.565 0-2.999-1.353-2.999-3.095C74 16.365 75.434 15 76.999 15c.746 0 1.339.33 1.648.695h.048v-.506H80v-.001zm-1.208 2.931c0-1.094-.735-1.894-1.67-1.894-.949 0-1.743.8-1.743 1.894 0 1.083.794 1.872 1.742 1.872.936 0 1.671-.789 1.671-1.872z" fill="#4285F4"/><path fill="#34A853" d="M82 12v9h-1v-9z"/><path d="m87.83 18.989 1.108.681c-.357.489-1.22 1.33-2.71 1.33C84.38 21 83 19.683 83 18c0-1.784 1.392-3 3.068-3 1.688 0 2.514 1.239 2.784 1.908l.148.341-4.349 1.661c.333.602.851.91 1.577.91.728 0 1.232-.33 1.602-.831zm-3.413-1.08 2.907-1.113c-.16-.374-.641-.635-1.207-.635-.726 0-1.737.59-1.7 1.748z" fill="#EA4335"/><path d="M55.205 16.944v-1.366h4.725c.046.238.07.52.07.824 0 1.025-.288 2.293-1.214 3.196-.902.914-2.054 1.402-3.58 1.402C52.378 21 50 18.756 50 16s2.378-5 5.206-5c1.565 0 2.68.598 3.517 1.378l-.99.964a3.624 3.624 0 0 0-2.528-.976c-2.065 0-3.68 1.622-3.68 3.634 0 2.012 1.615 3.634 3.68 3.634 1.34 0 2.102-.524 2.591-1 .397-.387.657-.938.76-1.692l-3.351.002z" fill="#4285F4"/></g><g stroke="#F8F8F8" stroke-width=".5" fill="#444F54" fill-rule="nonzero"><path d="M19.177 5.99c-.011-.596-.022-1.16-.022-1.705a.766.766 0 0 0-.758-.774c-3.243 0-5.711-.95-7.769-2.992a.747.747 0 0 0-1.057 0C7.514 2.56 5.045 3.511 1.803 3.511a.766.766 0 0 0-.758.774c0 .545-.01 1.109-.022 1.706C.92 11.543.777 19.148 9.851 22.357a.744.744 0 0 0 .497 0c9.075-3.209 8.933-10.814 8.829-16.367zM10.1 20.806C2.317 17.92 2.435 11.602 2.54 6.02c.006-.335.012-.66.016-.978 3.037-.13 5.465-1.07 7.544-2.917 2.079 1.848 4.507 2.787 7.544 2.917.004.318.01.643.017.978.104 5.582.222 11.9-7.561 14.786z"/><path d="m12.707 8.302-3.655 3.332-1.56-1.422a.81.81 0 0 0-1.07 0 .648.648 0 0 0 0 .976l2.095 1.91a.794.794 0 0 0 .535.202.794.794 0 0 0 .536-.202l4.19-3.82a.648.648 0 0 0 0-.976.81.81 0 0 0-1.07 0z"/></g></g></svg>