<svg width="73" height="24" xmlns="http://www.w3.org/2000/svg"><g fill="none" fill-rule="evenodd"><path d="M26.04 7.65h-.68c-.02.44.038.817.175 1.13.137.313.332.57.585.77.253.2.56.348.92.445a4.5 4.5 0 0 0 1.17.145c.42 0 .78-.038 1.08-.115.3-.077.552-.177.755-.3a1.7 1.7 0 0 0 .48-.415c.117-.153.207-.305.27-.455.063-.15.103-.292.12-.425s.025-.24.025-.32a1.76 1.76 0 0 0-.145-.75 1.52 1.52 0 0 0-.4-.525 2.366 2.366 0 0 0-.59-.36 5.003 5.003 0 0 0-.715-.245l-1.74-.43a2.623 2.623 0 0 1-.415-.13 1.242 1.242 0 0 1-.345-.21.92.92 0 0 1-.235-.315 1.033 1.033 0 0 1-.085-.435c0-.267.05-.49.15-.67.1-.18.232-.325.395-.435.163-.11.353-.19.57-.24.217-.05.442-.075.675-.075.253 0 .495.035.725.105.23.07.433.173.61.31s.32.307.43.51c.11.203.172.442.185.715h.68a2.07 2.07 0 0 0-.215-.965 2.082 2.082 0 0 0-.575-.695 2.486 2.486 0 0 0-.84-.42 3.59 3.59 0 0 0-1.01-.14c-.5 0-.91.072-1.23.215-.32.143-.572.318-.755.525a1.695 1.695 0 0 0-.375.66c-.067.233-.1.437-.1.61 0 .28.045.517.135.71.09.193.208.357.355.49s.318.24.515.32c.197.08.398.147.605.2l1.59.39c.167.04.337.092.51.155s.332.145.475.245c.143.1.26.223.35.37.09.147.135.32.135.52 0 .26-.063.482-.19.665a1.57 1.57 0 0 1-.475.45c-.19.117-.395.202-.615.255-.22.053-.423.08-.61.08a4.28 4.28 0 0 1-.92-.095 2.063 2.063 0 0 1-.745-.315 1.509 1.509 0 0 1-.495-.59c-.12-.247-.177-.553-.17-.92zm6.03-4.79V10h.68V2.86h-.68zm1.41 0v.58h2.48V10h.68V3.44h2.49v-.58h-5.65zm6.32 0V10h4.98v-.58h-4.3V6.6h3.98v-.58h-3.98V3.44h4.25v-.58H39.8zm8.96 1.49v.45h1.85V10h.63V3h-.51c-.047.32-.125.568-.235.745a1.08 1.08 0 0 1-.41.395 1.578 1.578 0 0 1-.58.165 9.43 9.43 0 0 1-.745.045zm7.37-1.41c.513 0 .928.112 1.245.335.317.223.563.508.74.855.177.347.297.733.36 1.16.063.427.095.843.095 1.25 0 .413-.032.833-.095 1.26a3.749 3.749 0 0 1-.36 1.16c-.177.347-.423.63-.74.85-.317.22-.732.33-1.245.33-.507 0-.92-.11-1.24-.33a2.262 2.262 0 0 1-.745-.85 3.749 3.749 0 0 1-.36-1.16 8.509 8.509 0 0 1-.095-1.25c0-.413.032-.833.095-1.26.063-.427.183-.813.36-1.16s.425-.632.745-.855c.32-.223.733-.335 1.24-.335zm0 .53c-.4 0-.72.103-.96.31-.24.207-.422.463-.545.77a3.79 3.79 0 0 0-.245 1c-.04.36-.06.69-.06.99 0 .307.02.638.06.995.04.357.122.69.245 1 .123.31.305.568.545.775.24.207.56.31.96.31.4 0 .72-.103.96-.31a1.96 1.96 0 0 0 .545-.775c.123-.31.205-.643.245-1 .04-.357.06-.688.06-.995 0-.3-.02-.63-.06-.99a3.79 3.79 0 0 0-.245-1 1.967 1.967 0 0 0-.545-.77c-.24-.207-.56-.31-.96-.31zm5.56-.53c.513 0 .928.112 1.245.335.317.223.563.508.74.855.177.347.297.733.36 1.16.063.427.095.843.095 1.25 0 .413-.032.833-.095 1.26a3.749 3.749 0 0 1-.36 1.16c-.177.347-.423.63-.74.85-.317.22-.732.33-1.245.33-.507 0-.92-.11-1.24-.33a2.262 2.262 0 0 1-.745-.85 3.749 3.749 0 0 1-.36-1.16 8.509 8.509 0 0 1-.095-1.25c0-.413.032-.833.095-1.26.063-.427.183-.813.36-1.16s.425-.632.745-.855c.32-.223.733-.335 1.24-.335zm0 .53c-.4 0-.72.103-.96.31-.24.207-.422.463-.545.77a3.79 3.79 0 0 0-.245 1c-.04.36-.06.69-.06.99 0 .307.02.638.06.995.04.357.122.69.245 1 .123.31.305.568.545.775.24.207.56.31.96.31.4 0 .72-.103.96-.31a1.96 1.96 0 0 0 .545-.775c.123-.31.205-.643.245-1 .04-.357.06-.688.06-.995 0-.3-.02-.63-.06-.99a3.79 3.79 0 0 0-.245-1 1.967 1.967 0 0 0-.545-.77c-.24-.207-.56-.31-.96-.31zm5.06-.53c.28 0 .522.048.725.145.203.097.368.23.495.4s.22.37.28.6c.06.23.09.478.09.745s-.03.515-.09.745c-.06.23-.153.43-.28.6a1.31 1.31 0 0 1-.495.4 1.674 1.674 0 0 1-.725.145c-.28 0-.522-.048-.725-.145a1.302 1.302 0 0 1-.495-.4c-.127-.17-.22-.37-.28-.6-.06-.23-.09-.478-.09-.745s.03-.515.09-.745c.06-.23.153-.43.28-.6a1.31 1.31 0 0 1 .495-.4c.203-.097.445-.145.725-.145zm4.39 3.88a.937.937 0 0 0-.525.135.992.992 0 0 0-.325.35c-.08.143-.135.3-.165.47a2.763 2.763 0 0 0 0 .985c.03.167.085.32.165.46s.188.255.325.345c.137.09.312.135.525.135a.918.918 0 0 0 .515-.135c.137-.09.245-.205.325-.345.08-.14.137-.293.17-.46a2.495 2.495 0 0 0 0-.985 1.582 1.582 0 0 0-.17-.47.992.992 0 0 0-.325-.35.918.918 0 0 0-.515-.135zm0-.45c.28 0 .522.048.725.145.203.097.368.23.495.4s.22.37.28.6c.06.23.09.478.09.745s-.03.515-.09.745c-.06.23-.153.43-.28.6a1.26 1.26 0 0 1-.495.395 1.73 1.73 0 0 1-.725.14 1.73 1.73 0 0 1-.725-.14 1.26 1.26 0 0 1-.495-.395c-.127-.17-.22-.37-.28-.6-.06-.23-.09-.478-.09-.745s.03-.515.09-.745c.06-.23.153-.43.28-.6a1.31 1.31 0 0 1 .495-.4c.203-.097.445-.145.725-.145zm-.24-3.62h.47l-4.52 7.58h-.48l4.53-7.58zm-4.15.64a.937.937 0 0 0-.525.135.992.992 0 0 0-.325.35c-.08.143-.135.3-.165.47a2.763 2.763 0 0 0 0 .985c.03.167.085.32.165.46s.188.255.325.345c.137.09.312.135.525.135a.918.918 0 0 0 .515-.135c.137-.09.245-.205.325-.345.08-.14.137-.293.17-.46a2.495 2.495 0 0 0 0-.985 1.582 1.582 0 0 0-.17-.47.992.992 0 0 0-.325-.35.918.918 0 0 0-.515-.135zM30.401 15.445h.99c-.015-.433-.097-.805-.247-1.117a2.175 2.175 0 0 0-.616-.775 2.54 2.54 0 0 0-.908-.451 4.197 4.197 0 0 0-1.122-.143c-.36 0-.71.046-1.05.138a2.888 2.888 0 0 0-.913.418 2.116 2.116 0 0 0-.644.714c-.161.29-.242.633-.242 1.029 0 .36.071.658.214.896.144.239.334.433.573.584.238.15.507.27.808.363.3.091.607.172.919.242.311.07.617.137.918.203.3.066.57.152.809.259.238.106.428.243.572.412.143.169.214.389.214.66 0 .286-.059.52-.176.704a1.28 1.28 0 0 1-.462.434 2.09 2.09 0 0 1-.643.226 3.901 3.901 0 0 1-.71.066 3.37 3.37 0 0 1-.858-.11 2.135 2.135 0 0 1-.732-.341 1.75 1.75 0 0 1-.505-.589 1.774 1.774 0 0 1-.193-.852h-.99c0 .477.086.89.259 1.238.172.348.406.634.703.858.298.223.642.39 1.035.5a4.775 4.775 0 0 0 2.332.038c.363-.084.69-.22.984-.407a2.3 2.3 0 0 0 .72-.726c.188-.297.281-.654.281-1.072 0-.389-.071-.711-.215-.968a1.91 1.91 0 0 0-.572-.638 3.03 3.03 0 0 0-.808-.401c-.3-.1-.607-.186-.919-.259a35.286 35.286 0 0 0-.918-.203 4.81 4.81 0 0 1-.809-.237 1.59 1.59 0 0 1-.572-.369.819.819 0 0 1-.214-.588c0-.257.05-.471.149-.643.099-.173.23-.31.395-.413.166-.103.354-.176.567-.22.213-.044.429-.066.649-.066.543 0 .988.126 1.337.38.348.253.551.661.61 1.226zm2.585-2.299V21h5.456v-.88h-4.411v-2.717h4.081v-.88h-4.081v-2.497h4.378v-.88h-5.423zm12.595 6.875.275.979h.66v-4.136h-3.443v.88h2.508a2.67 2.67 0 0 1-.143 1.006 2.29 2.29 0 0 1-.49.814 2.284 2.284 0 0 1-.797.545 2.8 2.8 0 0 1-1.089.198c-.44 0-.827-.086-1.16-.258a2.534 2.534 0 0 1-.842-.694c-.227-.29-.4-.623-.517-1a3.963 3.963 0 0 1-.176-1.183 4.9 4.9 0 0 1 .154-1.227c.103-.4.262-.755.478-1.066a2.47 2.47 0 0 1 .837-.754c.34-.19.75-.286 1.226-.286.293 0 .57.035.83.104.26.07.494.175.699.314.205.14.378.317.517.534.14.216.235.474.286.775h1.045c-.073-.462-.21-.856-.413-1.183a2.775 2.775 0 0 0-.748-.808 3.048 3.048 0 0 0-1.011-.467 4.734 4.734 0 0 0-1.205-.149c-.623 0-1.168.115-1.633.347a3.42 3.42 0 0 0-1.166.929 4.021 4.021 0 0 0-.704 1.359 5.57 5.57 0 0 0-.237 1.633c0 .513.084 1.008.253 1.485.169.477.414.898.737 1.265.323.367.715.658 1.177.875.462.216.986.324 1.573.324.462 0 .92-.09 1.375-.27.455-.18.836-.474 1.144-.885zm8.745-1.859v-5.016h-1.045v5.016c0 .704-.174 1.237-.523 1.6-.348.364-.856.545-1.523.545-.704 0-1.243-.181-1.617-.544-.374-.364-.561-.897-.561-1.601v-5.016h-1.045v5.016c0 1.049.284 1.813.852 2.294.569.48 1.359.72 2.371.72.99 0 1.753-.251 2.288-.753.535-.503.803-1.256.803-2.261zm1.672-5.016h3.696c.748 0 1.333.183 1.755.55.421.367.632.869.632 1.507 0 .477-.108.895-.325 1.254-.216.36-.562.605-1.039.737v.022a1.4 1.4 0 0 1 .556.22c.143.103.256.225.34.369.085.143.147.302.188.478.04.176.071.36.093.55.015.19.026.385.033.583.007.198.026.392.055.583.03.19.071.372.127.545.055.172.137.324.247.456H61.19a.656.656 0 0 1-.148-.33 3.39 3.39 0 0 1-.05-.468l-.022-.555a3.834 3.834 0 0 0-.066-.583 5.713 5.713 0 0 0-.11-.544 1.277 1.277 0 0 0-.209-.451 1.031 1.031 0 0 0-.374-.308c-.154-.078-.36-.116-.616-.116h-2.552V21h-1.045v-7.854zm3.223 3.619c.242 0 .473-.018.693-.055.22-.037.412-.108.578-.215.165-.106.296-.249.396-.428.099-.18.148-.413.148-.699 0-.396-.11-.719-.33-.968-.22-.25-.576-.374-1.067-.374h-2.596v2.739h2.178zm4.917.308c0 .396.051.786.154 1.171.103.386.264.732.484 1.04.22.308.502.555.847.742.345.188.755.281 1.232.281s.887-.093 1.232-.28c.345-.188.627-.435.847-.743.22-.308.381-.654.484-1.04a4.528 4.528 0 0 0 0-2.342 3.181 3.181 0 0 0-.484-1.04 2.474 2.474 0 0 0-.847-.742c-.345-.188-.755-.281-1.232-.281s-.887.093-1.232.28a2.474 2.474 0 0 0-.847.743c-.22.308-.381.654-.484 1.04a4.528 4.528 0 0 0-.154 1.171zm-1.045 0c0-.535.079-1.05.236-1.546.158-.495.395-.933.71-1.314a3.463 3.463 0 0 1 1.177-.913c.47-.227 1.016-.341 1.639-.341s1.17.114 1.639.341c.47.227.862.532 1.177.913.315.381.552.82.71 1.315a5.08 5.08 0 0 1 .236 1.545c0 .535-.079 1.05-.237 1.546a3.895 3.895 0 0 1-.709 1.314 3.404 3.404 0 0 1-1.177.907c-.47.224-1.016.336-1.639.336s-1.17-.112-1.639-.335a3.404 3.404 0 0 1-1.177-.908 3.895 3.895 0 0 1-.71-1.314 5.061 5.061 0 0 1-.236-1.546z" fill="#444F54"/><g fill-rule="nonzero"><path d="M1.418 8.3h17.017c.783 0 1.418.64 1.418 1.429V21.87c0 .79-.635 1.429-1.418 1.429H1.418A1.422 1.422 0 0 1 0 21.871V9.73C0 8.939.635 8.3 1.418 8.3z" fill="#EFC75E"/><path d="M18.435 8.3H1.418C.635 8.3 0 8.897 0 9.633v1.334c0 .736.635 1.333 1.418 1.333h17.017c.783 0 1.418-.597 1.418-1.333V9.633c0-.736-.635-1.333-1.418-1.333z" fill="#D7B354"/><path d="M4.151 9.3c-1.196 0-2.166.672-2.166 1.5 0 .829.97 1.5 2.166 1.5s2.166-.671 2.166-1.5-.97-1.5-2.166-1.5zm11.55 0c-1.195 0-2.165.672-2.165 1.5 0 .829.97 1.5 2.166 1.5s2.166-.671 2.166-1.5-.97-1.5-2.166-1.5z" fill="#B29446"/><path d="M9.926.3C6.09.3 2.978 3.575 2.978 7.614v2.955c0 .404.623.73 1.39.73.767 0 1.39-.326 1.39-.73V7.404a4.173 4.173 0 0 1 4.168-4.178c2.303 0 4.17 1.87 4.17 4.178v3.165c0 .404.622.731 1.39.731.766 0 1.389-.327 1.389-.731V7.614C16.875 3.575 13.764.3 9.926.3z" fill="#D1D5D7"/><path d="M9.43 1.3c-3.769 0-5.46 3.09-5.46 6.902V10.3c.754 0 1.365-.309 1.365-.69V6.624c0-2.178 1.834-3.943 4.095-3.943 2.262 0 4.095 1.765 4.095 3.943V9.61c0 .382.611.69 1.365.69V8.202C14.89 4.39 13.2 1.3 9.43 1.3z" fill="#DADDDF"/></g></g></svg>